<svg width="25" height="32" viewBox="0 0 25 32" fill="none" xmlns="http://www.w3.org/2000/svg">
<g clip-path="url(#clip0_77601_9715)">
<path d="M6.75 4.44531L7.59115 14.1186C7.68102 15.1521 8.54622 15.9453 9.58363 15.9453H14.4164C15.4538 15.9453 16.319 15.1521 16.4088 14.1186L17.25 4.44531" stroke="#AE1100" stroke-width="1.5" stroke-linecap="round" stroke-linejoin="round"/>
<path d="M9.75 4.19531V3.44531C9.75 2.34074 10.6454 1.44531 11.75 1.44531H12.25C13.3546 1.44531 14.25 2.34074 14.25 3.44531V4.19531" stroke="#AE1100" stroke-width="1.5" stroke-linecap="round" stroke-linejoin="round"/>
<path d="M5 4.44531H19" stroke="#AE1100" stroke-width="1.5" stroke-linecap="round" stroke-linejoin="round"/>
</g>
<path d="M1.064 28.6953C0.936 28.6953 0.834667 28.6606 0.76 28.5913C0.690667 28.5166 0.656 28.418 0.656 28.2953V23.4553C0.656 23.3326 0.690667 23.2366 0.76 23.1673C0.834667 23.0926 0.936 23.0553 1.064 23.0553H4.008C4.13067 23.0553 4.224 23.0846 4.288 23.1433C4.35733 23.202 4.392 23.2846 4.392 23.3913C4.392 23.498 4.35733 23.5806 4.288 23.6393C4.224 23.6926 4.13067 23.7193 4.008 23.7193H1.464V25.4953H3.848C3.97067 25.4953 4.064 25.5246 4.128 25.5833C4.19733 25.642 4.232 25.7246 4.232 25.8313C4.232 25.938 4.19733 26.0206 4.128 26.0793C4.064 26.138 3.97067 26.1673 3.848 26.1673H1.464V28.0313H4.008C4.264 28.0313 4.392 28.1406 4.392 28.3593C4.392 28.466 4.35733 28.5486 4.288 28.6073C4.224 28.666 4.13067 28.6953 4.008 28.6953H1.064ZM8.52769 28.0873C8.60769 28.1673 8.64769 28.2606 8.64769 28.3673C8.64769 28.4686 8.61035 28.5566 8.53569 28.6313C8.46635 28.7006 8.38102 28.7353 8.27969 28.7353C8.17835 28.7353 8.08502 28.69 7.99969 28.5993L6.77569 27.2233L5.55969 28.5993C5.47435 28.69 5.38102 28.7353 5.27969 28.7353C5.17835 28.7353 5.09035 28.698 5.01569 28.6233C4.94635 28.5486 4.91169 28.4606 4.91169 28.3593C4.91169 28.258 4.94902 28.1673 5.02369 28.0873L6.28769 26.6953L5.08769 25.3593C5.00769 25.2686 4.96769 25.178 4.96769 25.0873C4.96769 24.986 5.00502 24.9006 5.07969 24.8313C5.15435 24.7566 5.23969 24.7193 5.33569 24.7193C5.43702 24.7193 5.53035 24.7646 5.61569 24.8553L6.77569 26.1673L7.93569 24.8553C8.02102 24.7646 8.11702 24.7193 8.22369 24.7193C8.31969 24.7193 8.40502 24.7566 8.47969 24.8313C8.55435 24.9006 8.59169 24.986 8.59169 25.0873C8.59169 25.1886 8.55169 25.2793 8.47169 25.3593L7.27169 26.6953L8.52769 28.0873ZM11.0367 28.7513C10.658 28.7513 10.3247 28.6686 10.0367 28.5033C9.75402 28.338 9.53269 28.1033 9.37269 27.7993C9.21802 27.4953 9.14069 27.1433 9.14069 26.7433C9.14069 26.338 9.22069 25.9806 9.38069 25.6713C9.54602 25.362 9.77535 25.122 10.0687 24.9513C10.362 24.7806 10.698 24.6953 11.0767 24.6953C11.2794 24.6953 11.482 24.7246 11.6847 24.7833C11.8927 24.842 12.0767 24.922 12.2367 25.0233C12.4074 25.1406 12.4927 25.2766 12.4927 25.4313C12.4927 25.522 12.4687 25.5993 12.4207 25.6633C12.3727 25.722 12.3114 25.7513 12.2367 25.7513C12.1887 25.7513 12.1407 25.7406 12.0927 25.7193C12.0447 25.6926 11.9834 25.6553 11.9087 25.6073C11.7754 25.522 11.65 25.458 11.5327 25.4153C11.4207 25.3673 11.2847 25.3433 11.1247 25.3433C10.762 25.3433 10.4794 25.466 10.2767 25.7113C10.0794 25.9566 9.98069 26.298 9.98069 26.7353C9.98069 27.1726 10.0794 27.5113 10.2767 27.7513C10.474 27.986 10.754 28.1033 11.1167 28.1033C11.2767 28.1033 11.418 28.0793 11.5407 28.0313C11.6634 27.9833 11.7887 27.9193 11.9167 27.8393C11.9754 27.802 12.034 27.77 12.0927 27.7433C12.1514 27.7166 12.2047 27.7033 12.2527 27.7033C12.3274 27.7033 12.3887 27.7353 12.4367 27.7993C12.4847 27.858 12.5087 27.9326 12.5087 28.0233C12.5087 28.098 12.4874 28.1673 12.4447 28.2313C12.4074 28.29 12.3407 28.3513 12.2447 28.4153C12.0847 28.522 11.898 28.6046 11.6847 28.6633C11.4714 28.722 11.2554 28.7513 11.0367 28.7513ZM13.6399 28.7353C13.5225 28.7353 13.4239 28.7033 13.3439 28.6393C13.2692 28.5753 13.2319 28.4793 13.2319 28.3513V23.4073C13.2319 23.2793 13.2692 23.1833 13.3439 23.1193C13.4239 23.05 13.5225 23.0153 13.6399 23.0153C13.7572 23.0153 13.8532 23.05 13.9279 23.1193C14.0025 23.1833 14.0399 23.2793 14.0399 23.4073V28.3513C14.0399 28.4793 14.0025 28.5753 13.9279 28.6393C13.8532 28.7033 13.7572 28.7353 13.6399 28.7353ZM18.1934 24.7113C18.316 24.7113 18.412 24.746 18.4814 24.8153C18.556 24.8846 18.5934 24.9806 18.5934 25.1033V28.3593C18.5934 28.4713 18.556 28.562 18.4814 28.6313C18.4067 28.7006 18.308 28.7353 18.1854 28.7353C18.0734 28.7353 17.9827 28.7033 17.9134 28.6393C17.844 28.57 17.8094 28.4793 17.8094 28.3673V28.0633C17.6867 28.2873 17.516 28.458 17.2974 28.5753C17.084 28.6926 16.844 28.7513 16.5774 28.7513C15.628 28.7513 15.1534 28.2286 15.1534 27.1833V25.1033C15.1534 24.9806 15.188 24.8846 15.2574 24.8153C15.332 24.746 15.4334 24.7113 15.5614 24.7113C15.684 24.7113 15.78 24.746 15.8494 24.8153C15.924 24.8846 15.9614 24.9806 15.9614 25.1033V27.1753C15.9614 27.49 16.0254 27.722 16.1534 27.8713C16.2814 28.0206 16.4787 28.0953 16.7454 28.0953C17.06 28.0953 17.3107 27.994 17.4974 27.7913C17.6894 27.5886 17.7854 27.3193 17.7854 26.9833V25.1033C17.7854 24.986 17.8227 24.8926 17.8974 24.8233C17.972 24.7486 18.0707 24.7113 18.1934 24.7113ZM20.1321 28.7353C20.0147 28.7353 19.9161 28.7033 19.8361 28.6393C19.7614 28.5753 19.7241 28.4793 19.7241 28.3513V25.1033C19.7241 24.9753 19.7614 24.8793 19.8361 24.8153C19.9161 24.746 20.0147 24.7113 20.1321 24.7113C20.2494 24.7113 20.3454 24.746 20.4201 24.8153C20.4947 24.8793 20.5321 24.9753 20.5321 25.1033V28.3513C20.5321 28.4793 20.4947 28.5753 20.4201 28.6393C20.3454 28.7033 20.2494 28.7353 20.1321 28.7353ZM20.1321 23.9273C19.9774 23.9273 19.8547 23.8846 19.7641 23.7993C19.6734 23.714 19.6281 23.602 19.6281 23.4633C19.6281 23.3246 19.6734 23.2153 19.7641 23.1353C19.8547 23.05 19.9774 23.0073 20.1321 23.0073C20.2814 23.0073 20.4014 23.05 20.4921 23.1353C20.5881 23.2153 20.6361 23.3246 20.6361 23.4633C20.6361 23.602 20.5907 23.714 20.5001 23.7993C20.4094 23.8846 20.2867 23.9273 20.1321 23.9273ZM23.7096 24.7113C23.9656 24.6953 24.0936 24.8046 24.0936 25.0393C24.0936 25.1566 24.0642 25.2446 24.0056 25.3033C23.9469 25.362 23.8456 25.3966 23.7016 25.4073L23.4616 25.4313C23.1256 25.4633 22.8749 25.5806 22.7096 25.7833C22.5496 25.986 22.4696 26.2313 22.4696 26.5193V28.3513C22.4696 28.4793 22.4322 28.5753 22.3576 28.6393C22.2829 28.7033 22.1869 28.7353 22.0696 28.7353C21.9522 28.7353 21.8536 28.7033 21.7736 28.6393C21.6989 28.5753 21.6616 28.4793 21.6616 28.3513V25.0953C21.6616 24.9726 21.6989 24.8793 21.7736 24.8153C21.8536 24.746 21.9522 24.7113 22.0696 24.7113C22.1762 24.7113 22.2642 24.746 22.3336 24.8153C22.4082 24.8793 22.4456 24.97 22.4456 25.0873V25.4713C22.5522 25.2366 22.7069 25.058 22.9096 24.9353C23.1122 24.8126 23.3416 24.7406 23.5976 24.7193L23.7096 24.7113Z" fill="#AE1100"/>
<defs>
<clipPath id="clip0_77601_9715">
<rect width="17" height="16" fill="white" transform="translate(4 0.695312)"/>
</clipPath>
</defs>
</svg>
