<svg width="77" height="20" viewBox="0 0 77 20" fill="none" xmlns="http://www.w3.org/2000/svg">
<rect y="0.841797" width="77" height="19" rx="8" fill="#FCF6DC"/>
<path d="M9.862 14.9118C9.64733 14.9118 9.47467 14.8465 9.344 14.7158C9.21333 14.5851 9.148 14.4078 9.148 14.1838V5.6718C9.148 5.45713 9.20867 5.28913 9.33 5.1678C9.46067 5.03713 9.638 4.9718 9.862 4.9718H13.236C14.2813 4.9718 15.0933 5.22846 15.672 5.7418C16.2507 6.25513 16.54 6.98313 16.54 7.9258C16.54 8.85913 16.2507 9.58713 15.672 10.1098C15.0933 10.6325 14.2813 10.8938 13.236 10.8938H10.59V14.1838C10.59 14.4078 10.5247 14.5851 10.394 14.7158C10.2727 14.8465 10.0953 14.9118 9.862 14.9118ZM13.082 9.7318C14.4633 9.7318 15.154 9.1298 15.154 7.9258C15.154 6.73113 14.4633 6.1338 13.082 6.1338H10.59V9.7318H13.082ZM23.2284 13.1198C23.3591 13.1198 23.4664 13.1711 23.5504 13.2738C23.6344 13.3765 23.6764 13.5071 23.6764 13.6658C23.6764 13.9365 23.5084 14.1651 23.1724 14.3518C22.8457 14.5385 22.4864 14.6831 22.0944 14.7858C21.7117 14.8885 21.3431 14.9398 20.9884 14.9398C19.9057 14.9398 19.0517 14.6271 18.4264 14.0018C17.8011 13.3671 17.4884 12.5038 17.4884 11.4118C17.4884 10.7118 17.6237 10.0911 17.8944 9.5498C18.1744 9.00846 18.5617 8.58846 19.0564 8.2898C19.5604 7.99113 20.1297 7.8418 20.7644 7.8418C21.6791 7.8418 22.4024 8.1358 22.9344 8.7238C23.4664 9.3118 23.7324 10.1051 23.7324 11.1038C23.7324 11.4771 23.5644 11.6638 23.2284 11.6638H18.9024C18.9957 13.1105 19.6911 13.8338 20.9884 13.8338C21.3337 13.8338 21.6324 13.7871 21.8844 13.6938C22.1364 13.6005 22.4024 13.4791 22.6824 13.3298C22.7104 13.3111 22.7851 13.2738 22.9064 13.2178C23.0371 13.1525 23.1444 13.1198 23.2284 13.1198ZM20.7924 8.8778C20.2511 8.8778 19.8171 9.05046 19.4904 9.3958C19.1637 9.74113 18.9677 10.2265 18.9024 10.8518H22.5144C22.4864 10.2171 22.3231 9.7318 22.0244 9.3958C21.7351 9.05046 21.3244 8.8778 20.7924 8.8778ZM28.9725 7.8418C30.6059 7.8418 31.4225 8.76113 31.4225 10.5998V14.2398C31.4225 14.4545 31.3572 14.6225 31.2265 14.7438C31.1052 14.8558 30.9325 14.9118 30.7085 14.9118C30.4939 14.9118 30.3212 14.8511 30.1905 14.7298C30.0692 14.6085 30.0085 14.4451 30.0085 14.2398V10.6698C30.0085 10.0911 29.8919 9.66646 29.6585 9.3958C29.4345 9.12513 29.0799 8.9898 28.5945 8.9898C28.0252 8.9898 27.5679 9.16713 27.2225 9.5218C26.8772 9.87646 26.7045 10.3525 26.7045 10.9498V14.2398C26.7045 14.4451 26.6392 14.6085 26.5085 14.7298C26.3872 14.8511 26.2192 14.9118 26.0045 14.9118C25.7899 14.9118 25.6172 14.8511 25.4865 14.7298C25.3559 14.6085 25.2905 14.4451 25.2905 14.2398V8.5418C25.2905 8.3458 25.3559 8.18713 25.4865 8.0658C25.6265 7.93513 25.7992 7.8698 26.0045 7.8698C26.2099 7.8698 26.3732 7.93046 26.4945 8.0518C26.6159 8.17313 26.6765 8.3318 26.6765 8.5278V9.1018C26.9005 8.69113 27.2132 8.37846 27.6145 8.1638C28.0159 7.94913 28.4685 7.8418 28.9725 7.8418ZM38.943 4.9018C39.1576 4.9018 39.3303 4.96246 39.461 5.0838C39.5916 5.20513 39.657 5.36846 39.657 5.5738V14.2258C39.657 14.4405 39.5916 14.6085 39.461 14.7298C39.3396 14.8511 39.1716 14.9118 38.957 14.9118C38.7423 14.9118 38.5696 14.8511 38.439 14.7298C38.3176 14.6085 38.257 14.4405 38.257 14.2258V13.6658C38.0516 14.0765 37.753 14.3938 37.361 14.6178C36.969 14.8325 36.5163 14.9398 36.003 14.9398C35.415 14.9398 34.8876 14.7905 34.421 14.4918C33.9636 14.1931 33.6043 13.7731 33.343 13.2318C33.091 12.6905 32.965 12.0698 32.965 11.3698C32.965 10.6605 33.091 10.0398 33.343 9.5078C33.6043 8.9758 33.9636 8.56513 34.421 8.2758C34.8783 7.98646 35.4056 7.8418 36.003 7.8418C36.5163 7.8418 36.9643 7.9538 37.347 8.1778C37.739 8.39246 38.0376 8.70046 38.243 9.1018V5.5458C38.243 5.3498 38.3036 5.1958 38.425 5.0838C38.5556 4.96246 38.7283 4.9018 38.943 4.9018ZM36.339 13.8198C36.9456 13.8198 37.417 13.6098 37.753 13.1898C38.089 12.7698 38.257 12.1725 38.257 11.3978C38.257 10.6231 38.089 10.0258 37.753 9.6058C37.4263 9.1858 36.955 8.9758 36.339 8.9758C35.723 8.9758 35.2423 9.1858 34.897 9.6058C34.561 10.0165 34.393 10.6045 34.393 11.3698C34.393 12.1351 34.5656 12.7371 34.911 13.1758C35.2563 13.6051 35.7323 13.8198 36.339 13.8198ZM46.9764 13.1198C47.1071 13.1198 47.2144 13.1711 47.2984 13.2738C47.3824 13.3765 47.4244 13.5071 47.4244 13.6658C47.4244 13.9365 47.2564 14.1651 46.9204 14.3518C46.5938 14.5385 46.2344 14.6831 45.8424 14.7858C45.4598 14.8885 45.0911 14.9398 44.7364 14.9398C43.6538 14.9398 42.7998 14.6271 42.1744 14.0018C41.5491 13.3671 41.2364 12.5038 41.2364 11.4118C41.2364 10.7118 41.3718 10.0911 41.6424 9.5498C41.9224 9.00846 42.3098 8.58846 42.8044 8.2898C43.3084 7.99113 43.8778 7.8418 44.5124 7.8418C45.4271 7.8418 46.1504 8.1358 46.6824 8.7238C47.2144 9.3118 47.4804 10.1051 47.4804 11.1038C47.4804 11.4771 47.3124 11.6638 46.9764 11.6638H42.6504C42.7438 13.1105 43.4391 13.8338 44.7364 13.8338C45.0818 13.8338 45.3804 13.7871 45.6324 13.6938C45.8844 13.6005 46.1504 13.4791 46.4304 13.3298C46.4584 13.3111 46.5331 13.2738 46.6544 13.2178C46.7851 13.1525 46.8924 13.1198 46.9764 13.1198ZM44.5404 8.8778C43.9991 8.8778 43.5651 9.05046 43.2384 9.3958C42.9118 9.74113 42.7158 10.2265 42.6504 10.8518H46.2624C46.2344 10.2171 46.0711 9.7318 45.7724 9.3958C45.4831 9.05046 45.0724 8.8778 44.5404 8.8778ZM52.7206 7.8418C54.3539 7.8418 55.1706 8.76113 55.1706 10.5998V14.2398C55.1706 14.4545 55.1053 14.6225 54.9746 14.7438C54.8533 14.8558 54.6806 14.9118 54.4566 14.9118C54.2419 14.9118 54.0693 14.8511 53.9386 14.7298C53.8173 14.6085 53.7566 14.4451 53.7566 14.2398V10.6698C53.7566 10.0911 53.6399 9.66646 53.4066 9.3958C53.1826 9.12513 52.8279 8.9898 52.3426 8.9898C51.7733 8.9898 51.3159 9.16713 50.9706 9.5218C50.6253 9.87646 50.4526 10.3525 50.4526 10.9498V14.2398C50.4526 14.4451 50.3873 14.6085 50.2566 14.7298C50.1353 14.8511 49.9673 14.9118 49.7526 14.9118C49.5379 14.9118 49.3653 14.8511 49.2346 14.7298C49.1039 14.6085 49.0386 14.4451 49.0386 14.2398V8.5418C49.0386 8.3458 49.1039 8.18713 49.2346 8.0658C49.3746 7.93513 49.5473 7.8698 49.7526 7.8698C49.9579 7.8698 50.1213 7.93046 50.2426 8.0518C50.3639 8.17313 50.4246 8.3318 50.4246 8.5278V9.1018C50.6486 8.69113 50.9613 8.37846 51.3626 8.1638C51.7639 7.94913 52.2166 7.8418 52.7206 7.8418ZM60.451 13.8338C60.6563 13.8525 60.801 13.9085 60.885 14.0018C60.9783 14.0858 61.025 14.2071 61.025 14.3658C61.025 14.5525 60.9503 14.6971 60.801 14.7998C60.661 14.8931 60.451 14.9305 60.171 14.9118L59.793 14.8838C59.037 14.8278 58.4723 14.5991 58.099 14.1978C57.7257 13.7871 57.539 13.1851 57.539 12.3918V9.1018H56.699C56.2883 9.1018 56.083 8.9198 56.083 8.5558C56.083 8.3878 56.1343 8.25713 56.237 8.1638C56.349 8.06113 56.503 8.0098 56.699 8.0098H57.539V6.5678C57.539 6.35313 57.5997 6.18513 57.721 6.0638C57.8517 5.94246 58.0243 5.8818 58.239 5.8818C58.4537 5.8818 58.6263 5.94246 58.757 6.0638C58.8877 6.18513 58.953 6.35313 58.953 6.5678V8.0098H60.339C60.535 8.0098 60.6843 8.06113 60.787 8.1638C60.899 8.25713 60.955 8.3878 60.955 8.5558C60.955 8.73313 60.899 8.86846 60.787 8.9618C60.6843 9.05513 60.535 9.1018 60.339 9.1018H58.953V12.4898C58.953 12.9285 59.0417 13.2505 59.219 13.4558C59.4057 13.6611 59.6857 13.7778 60.059 13.8058L60.451 13.8338ZM67.3885 13.1198C67.5192 13.1198 67.6265 13.1711 67.7105 13.2738C67.7945 13.3765 67.8365 13.5071 67.8365 13.6658C67.8365 13.9365 67.6685 14.1651 67.3325 14.3518C67.0059 14.5385 66.6465 14.6831 66.2545 14.7858C65.8719 14.8885 65.5032 14.9398 65.1485 14.9398C64.0659 14.9398 63.2119 14.6271 62.5865 14.0018C61.9612 13.3671 61.6485 12.5038 61.6485 11.4118C61.6485 10.7118 61.7839 10.0911 62.0545 9.5498C62.3345 9.00846 62.7219 8.58846 63.2165 8.2898C63.7205 7.99113 64.2899 7.8418 64.9245 7.8418C65.8392 7.8418 66.5625 8.1358 67.0945 8.7238C67.6265 9.3118 67.8925 10.1051 67.8925 11.1038C67.8925 11.4771 67.7245 11.6638 67.3885 11.6638H63.0625C63.1559 13.1105 63.8512 13.8338 65.1485 13.8338C65.4939 13.8338 65.7925 13.7871 66.0445 13.6938C66.2965 13.6005 66.5625 13.4791 66.8425 13.3298C66.8705 13.3111 66.9452 13.2738 67.0665 13.2178C67.1972 13.1525 67.3045 13.1198 67.3885 13.1198ZM64.9525 8.8778C64.4112 8.8778 63.9772 9.05046 63.6505 9.3958C63.3239 9.74113 63.1279 10.2265 63.0625 10.8518H66.6745C66.6465 10.2171 66.4832 9.7318 66.1845 9.3958C65.8952 9.05046 65.4845 8.8778 64.9525 8.8778Z" fill="#C5A605"/>
</svg>
