<svg width="49" height="20" viewBox="0 0 49 20" fill="none" xmlns="http://www.w3.org/2000/svg">
<rect y="0.939453" width="49" height="19" rx="8" fill="#EEF6F6"/>
<path d="M9.862 15.0095C9.64733 15.0095 9.47467 14.9441 9.344 14.8135C9.21333 14.6828 9.148 14.5055 9.148 14.2815V5.76945C9.148 5.55479 9.20867 5.38679 9.33 5.26545C9.46067 5.13479 9.638 5.06945 9.862 5.06945H13.236C14.2813 5.06945 15.0933 5.32612 15.672 5.83945C16.2507 6.35279 16.54 7.08079 16.54 8.02345C16.54 8.95679 16.2507 9.68479 15.672 10.2075C15.0933 10.7301 14.2813 10.9915 13.236 10.9915H10.59V14.2815C10.59 14.5055 10.5247 14.6828 10.394 14.8135C10.2727 14.9441 10.0953 15.0095 9.862 15.0095ZM13.082 9.82945C14.4633 9.82945 15.154 9.22745 15.154 8.02345C15.154 6.82879 14.4633 6.23145 13.082 6.23145H10.59V9.82945H13.082ZM20.8188 7.93945C21.7241 7.93945 22.3961 8.16812 22.8348 8.62545C23.2828 9.08279 23.5068 9.77812 23.5068 10.7115V14.3375C23.5068 14.5521 23.4461 14.7201 23.3248 14.8415C23.2034 14.9535 23.0354 15.0095 22.8208 15.0095C22.6154 15.0095 22.4521 14.9488 22.3308 14.8275C22.2094 14.7061 22.1488 14.5428 22.1488 14.3375V13.8195C21.9714 14.2115 21.7054 14.5148 21.3508 14.7295C21.0054 14.9348 20.5994 15.0375 20.1328 15.0375C19.6848 15.0375 19.2741 14.9488 18.9008 14.7715C18.5368 14.5848 18.2474 14.3328 18.0328 14.0155C17.8181 13.6981 17.7108 13.3388 17.7108 12.9375C17.7014 12.4335 17.8274 12.0415 18.0888 11.7615C18.3501 11.4721 18.7748 11.2668 19.3628 11.1455C19.9508 11.0148 20.7674 10.9495 21.8128 10.9495H22.1348V10.5435C22.1348 10.0208 22.0274 9.64279 21.8128 9.40945C21.5981 9.17612 21.2528 9.05945 20.7768 9.05945C20.4501 9.05945 20.1421 9.10145 19.8528 9.18545C19.5634 9.26945 19.2461 9.39079 18.9008 9.54945C18.6488 9.68945 18.4714 9.75945 18.3688 9.75945C18.2288 9.75945 18.1121 9.70812 18.0188 9.60545C17.9348 9.50279 17.8927 9.37212 17.8927 9.21345C17.8927 9.07345 17.9301 8.95212 18.0048 8.84945C18.0888 8.73745 18.2194 8.63012 18.3968 8.52745C18.7234 8.35012 19.1061 8.21012 19.5448 8.10745C19.9834 7.99545 20.4081 7.93945 20.8188 7.93945ZM20.3848 13.9875C20.8981 13.9875 21.3181 13.8148 21.6448 13.4695C21.9714 13.1148 22.1348 12.6621 22.1348 12.1115V11.7475H21.8828C21.1548 11.7475 20.5948 11.7801 20.2028 11.8455C19.8108 11.9108 19.5308 12.0228 19.3628 12.1815C19.1948 12.3308 19.1108 12.5501 19.1108 12.8395C19.1108 13.1755 19.2321 13.4508 19.4748 13.6655C19.7174 13.8801 20.0208 13.9875 20.3848 13.9875ZM31.0969 7.96745C31.3116 7.96745 31.4796 8.03279 31.6009 8.16345C31.7316 8.28479 31.7969 8.44812 31.7969 8.65345V14.3935C31.7969 15.4388 31.5169 16.2275 30.9569 16.7595C30.4063 17.2915 29.5896 17.5575 28.5069 17.5575C27.4989 17.5575 26.6589 17.3661 25.9869 16.9835C25.6416 16.7875 25.4689 16.5541 25.4689 16.2835C25.4689 16.1248 25.5109 15.9941 25.5949 15.8915C25.6883 15.7888 25.8003 15.7375 25.9309 15.7375C26.0523 15.7375 26.2436 15.8075 26.5049 15.9475C26.8409 16.1061 27.1536 16.2275 27.4429 16.3115C27.7323 16.4048 28.0776 16.4515 28.4789 16.4515C29.7669 16.4515 30.4109 15.8028 30.4109 14.5055V13.4275C30.2149 13.8381 29.9163 14.1601 29.5149 14.3935C29.1136 14.6175 28.6469 14.7295 28.1149 14.7295C27.5176 14.7295 26.9856 14.5895 26.5189 14.3095C26.0523 14.0295 25.6883 13.6328 25.4269 13.1195C25.1749 12.6061 25.0489 12.0135 25.0489 11.3415C25.0489 10.6695 25.1796 10.0768 25.4409 9.56345C25.7023 9.05012 26.0616 8.65345 26.5189 8.37345C26.9856 8.08412 27.5176 7.93945 28.1149 7.93945C28.6376 7.93945 29.0949 8.05145 29.4869 8.27545C29.8883 8.49945 30.1916 8.81679 30.3969 9.22745V8.63945C30.3969 8.43412 30.4576 8.27079 30.5789 8.14945C30.7096 8.02812 30.8823 7.96745 31.0969 7.96745ZM28.4509 13.6095C29.0576 13.6095 29.5336 13.4088 29.8789 13.0075C30.2243 12.6061 30.3969 12.0508 30.3969 11.3415C30.3969 10.6415 30.2243 10.0908 29.8789 9.68945C29.5429 9.27879 29.0669 9.07345 28.4509 9.07345C27.8349 9.07345 27.3496 9.27412 26.9949 9.67545C26.6496 10.0768 26.4769 10.6321 26.4769 11.3415C26.4769 12.0508 26.6543 12.6061 27.0089 13.0075C27.3636 13.4088 27.8443 13.6095 28.4509 13.6095ZM36.6371 7.93945C37.5424 7.93945 38.2144 8.16812 38.6531 8.62545C39.1011 9.08279 39.3251 9.77812 39.3251 10.7115V14.3375C39.3251 14.5521 39.2644 14.7201 39.1431 14.8415C39.0218 14.9535 38.8538 15.0095 38.6391 15.0095C38.4338 15.0095 38.2704 14.9488 38.1491 14.8275C38.0278 14.7061 37.9671 14.5428 37.9671 14.3375V13.8195C37.7898 14.2115 37.5238 14.5148 37.1691 14.7295C36.8238 14.9348 36.4178 15.0375 35.9511 15.0375C35.5031 15.0375 35.0924 14.9488 34.7191 14.7715C34.3551 14.5848 34.0658 14.3328 33.8511 14.0155C33.6364 13.6981 33.5291 13.3388 33.5291 12.9375C33.5198 12.4335 33.6458 12.0415 33.9071 11.7615C34.1684 11.4721 34.5931 11.2668 35.1811 11.1455C35.7691 11.0148 36.5858 10.9495 37.6311 10.9495H37.9531V10.5435C37.9531 10.0208 37.8458 9.64279 37.6311 9.40945C37.4164 9.17612 37.0711 9.05945 36.5951 9.05945C36.2684 9.05945 35.9604 9.10145 35.6711 9.18545C35.3818 9.26945 35.0644 9.39079 34.7191 9.54945C34.4671 9.68945 34.2898 9.75945 34.1871 9.75945C34.0471 9.75945 33.9304 9.70812 33.8371 9.60545C33.7531 9.50279 33.7111 9.37212 33.7111 9.21345C33.7111 9.07345 33.7484 8.95212 33.8231 8.84945C33.9071 8.73745 34.0378 8.63012 34.2151 8.52745C34.5418 8.35012 34.9244 8.21012 35.3631 8.10745C35.8018 7.99545 36.2264 7.93945 36.6371 7.93945ZM36.2031 13.9875C36.7164 13.9875 37.1364 13.8148 37.4631 13.4695C37.7898 13.1148 37.9531 12.6621 37.9531 12.1115V11.7475H37.7011C36.9731 11.7475 36.4131 11.7801 36.0211 11.8455C35.6291 11.9108 35.3491 12.0228 35.1811 12.1815C35.0131 12.3308 34.9291 12.5501 34.9291 12.8395C34.9291 13.1755 35.0504 13.4508 35.2931 13.6655C35.5358 13.8801 35.8391 13.9875 36.2031 13.9875Z" fill="#1FA7AF"/>
</svg>
