<svg width="100" height="20" viewBox="0 0 100 20" fill="none" xmlns="http://www.w3.org/2000/svg">
<rect x="0.5" y="0.695312" width="99" height="19" rx="8" fill="#FFEFEF"/>
<path d="M10.362 14.7653C10.1473 14.7653 9.97467 14.7 9.844 14.5693C9.71333 14.4386 9.648 14.2613 9.648 14.0373V5.48331C9.648 5.26865 9.71333 5.09598 9.844 4.96531C9.97467 4.82531 10.1473 4.75531 10.362 4.75531C10.586 4.75531 10.7633 4.82065 10.894 4.95131C11.0247 5.08198 11.09 5.25931 11.09 5.48331V14.0373C11.09 14.2613 11.0247 14.4386 10.894 14.5693C10.7727 14.7 10.5953 14.7653 10.362 14.7653ZM16.8944 7.69531C18.5278 7.69531 19.3444 8.61465 19.3444 10.4533V14.0933C19.3444 14.308 19.2791 14.476 19.1484 14.5973C19.0271 14.7093 18.8544 14.7653 18.6304 14.7653C18.4158 14.7653 18.2431 14.7046 18.1124 14.5833C17.9911 14.462 17.9304 14.2986 17.9304 14.0933V10.5233C17.9304 9.94465 17.8138 9.51998 17.5804 9.24931C17.3564 8.97865 17.0018 8.84331 16.5164 8.84331C15.9471 8.84331 15.4898 9.02065 15.1444 9.37531C14.7991 9.72998 14.6264 10.206 14.6264 10.8033V14.0933C14.6264 14.2986 14.5611 14.462 14.4304 14.5833C14.3091 14.7046 14.1411 14.7653 13.9264 14.7653C13.7118 14.7653 13.5391 14.7046 13.4084 14.5833C13.2778 14.462 13.2124 14.2986 13.2124 14.0933V8.39531C13.2124 8.19931 13.2778 8.04065 13.4084 7.91931C13.5484 7.78865 13.7211 7.72331 13.9264 7.72331C14.1318 7.72331 14.2951 7.78398 14.4164 7.90531C14.5378 8.02665 14.5984 8.18531 14.5984 8.38131V8.95531C14.8224 8.54465 15.1351 8.23198 15.5364 8.01731C15.9378 7.80265 16.3904 7.69531 16.8944 7.69531ZM24.1488 7.69531C25.0542 7.69531 25.7262 7.92398 26.1648 8.38131C26.6128 8.83865 26.8368 9.53398 26.8368 10.4673V14.0933C26.8368 14.308 26.7762 14.476 26.6548 14.5973C26.5335 14.7093 26.3655 14.7653 26.1508 14.7653C25.9455 14.7653 25.7822 14.7046 25.6608 14.5833C25.5395 14.462 25.4788 14.2986 25.4788 14.0933V13.5753C25.3015 13.9673 25.0355 14.2706 24.6808 14.4853C24.3355 14.6906 23.9295 14.7933 23.4628 14.7933C23.0148 14.7933 22.6042 14.7046 22.2308 14.5273C21.8668 14.3406 21.5775 14.0886 21.3628 13.7713C21.1482 13.454 21.0408 13.0946 21.0408 12.6933C21.0315 12.1893 21.1575 11.7973 21.4188 11.5173C21.6802 11.228 22.1048 11.0226 22.6928 10.9013C23.2808 10.7706 24.0975 10.7053 25.1428 10.7053H25.4648V10.2993C25.4648 9.77665 25.3575 9.39865 25.1428 9.16531C24.9282 8.93198 24.5828 8.81531 24.1068 8.81531C23.7802 8.81531 23.4722 8.85731 23.1828 8.94131C22.8935 9.02531 22.5762 9.14665 22.2308 9.30531C21.9788 9.44531 21.8015 9.51531 21.6988 9.51531C21.5588 9.51531 21.4422 9.46398 21.3488 9.36131C21.2648 9.25865 21.2228 9.12798 21.2228 8.96931C21.2228 8.82931 21.2602 8.70798 21.3348 8.60531C21.4188 8.49331 21.5495 8.38598 21.7268 8.28331C22.0535 8.10598 22.4362 7.96598 22.8748 7.86331C23.3135 7.75131 23.7382 7.69531 24.1488 7.69531ZM23.7148 13.7433C24.2282 13.7433 24.6482 13.5706 24.9748 13.2253C25.3015 12.8706 25.4648 12.418 25.4648 11.8673V11.5033H25.2128C24.4848 11.5033 23.9248 11.536 23.5328 11.6013C23.1408 11.6666 22.8608 11.7786 22.6928 11.9373C22.5248 12.0866 22.4408 12.306 22.4408 12.5953C22.4408 12.9313 22.5622 13.2066 22.8048 13.4213C23.0475 13.636 23.3508 13.7433 23.7148 13.7433ZM34.357 4.75531C34.5717 4.75531 34.7443 4.81598 34.875 4.93731C35.0057 5.05865 35.071 5.22198 35.071 5.42731V14.0793C35.071 14.294 35.0057 14.462 34.875 14.5833C34.7537 14.7046 34.5857 14.7653 34.371 14.7653C34.1563 14.7653 33.9837 14.7046 33.853 14.5833C33.7317 14.462 33.671 14.294 33.671 14.0793V13.5193C33.4657 13.93 33.167 14.2473 32.775 14.4713C32.383 14.686 31.9303 14.7933 31.417 14.7933C30.829 14.7933 30.3017 14.644 29.835 14.3453C29.3777 14.0466 29.0183 13.6266 28.757 13.0853C28.505 12.544 28.379 11.9233 28.379 11.2233C28.379 10.514 28.505 9.89331 28.757 9.36131C29.0183 8.82931 29.3777 8.41865 29.835 8.12931C30.2923 7.83998 30.8197 7.69531 31.417 7.69531C31.9303 7.69531 32.3783 7.80731 32.761 8.03131C33.153 8.24598 33.4517 8.55398 33.657 8.95531V5.39931C33.657 5.20331 33.7177 5.04931 33.839 4.93731C33.9697 4.81598 34.1423 4.75531 34.357 4.75531ZM31.753 13.6733C32.3597 13.6733 32.831 13.4633 33.167 13.0433C33.503 12.6233 33.671 12.026 33.671 11.2513C33.671 10.4766 33.503 9.87931 33.167 9.45931C32.8403 9.03931 32.369 8.82931 31.753 8.82931C31.137 8.82931 30.6563 9.03931 30.311 9.45931C29.975 9.86998 29.807 10.458 29.807 11.2233C29.807 11.9886 29.9797 12.5906 30.325 13.0293C30.6703 13.4586 31.1463 13.6733 31.753 13.6733ZM37.7565 14.7653C37.5512 14.7653 37.3785 14.7093 37.2385 14.5973C37.1078 14.4853 37.0425 14.3173 37.0425 14.0933V8.40931C37.0425 8.18531 37.1078 8.01731 37.2385 7.90531C37.3785 7.78398 37.5512 7.72331 37.7565 7.72331C37.9618 7.72331 38.1298 7.78398 38.2605 7.90531C38.3912 8.01731 38.4565 8.18531 38.4565 8.40931V14.0933C38.4565 14.3173 38.3912 14.4853 38.2605 14.5973C38.1298 14.7093 37.9618 14.7653 37.7565 14.7653ZM37.7565 6.35131C37.4858 6.35131 37.2712 6.27665 37.1125 6.12731C36.9538 5.97798 36.8745 5.78198 36.8745 5.53931C36.8745 5.29665 36.9538 5.10531 37.1125 4.96531C37.2712 4.81598 37.4858 4.74131 37.7565 4.74131C38.0178 4.74131 38.2278 4.81598 38.3865 4.96531C38.5545 5.10531 38.6385 5.29665 38.6385 5.53931C38.6385 5.78198 38.5592 5.97798 38.4005 6.12731C38.2418 6.27665 38.0272 6.35131 37.7565 6.35131ZM48.2731 7.69531C49.8038 7.69531 50.5691 8.61465 50.5691 10.4533V14.0933C50.5691 14.308 50.5038 14.476 50.3731 14.5973C50.2425 14.7093 50.0698 14.7653 49.8551 14.7653C49.6498 14.7653 49.4818 14.7093 49.3511 14.5973C49.2205 14.476 49.1551 14.308 49.1551 14.0933V10.4673C49.1551 9.89798 49.0525 9.48731 48.8471 9.23531C48.6418 8.97398 48.3198 8.84331 47.8811 8.84331C47.3678 8.84331 46.9618 9.02065 46.6631 9.37531C46.3645 9.72065 46.2151 10.1966 46.2151 10.8033V14.0933C46.2151 14.308 46.1498 14.476 46.0191 14.5973C45.8885 14.7093 45.7158 14.7653 45.5011 14.7653C45.2958 14.7653 45.1278 14.7093 44.9971 14.5973C44.8665 14.476 44.8011 14.308 44.8011 14.0933V10.4673C44.8011 9.89798 44.6985 9.48731 44.4931 9.23531C44.2878 8.97398 43.9658 8.84331 43.5271 8.84331C43.0138 8.84331 42.6031 9.02065 42.2951 9.37531C41.9965 9.72065 41.8471 10.1966 41.8471 10.8033V14.0933C41.8471 14.308 41.7818 14.476 41.6511 14.5973C41.5205 14.7093 41.3525 14.7653 41.1471 14.7653C40.9418 14.7653 40.7691 14.7093 40.6291 14.5973C40.4985 14.476 40.4331 14.308 40.4331 14.0933V8.39531C40.4331 8.18998 40.5031 8.02665 40.6431 7.90531C40.7831 7.78398 40.9511 7.72331 41.1471 7.72331C41.3431 7.72331 41.5018 7.78398 41.6231 7.90531C41.7538 8.01731 41.8191 8.17598 41.8191 8.38131V8.89931C42.0245 8.50731 42.3091 8.20865 42.6731 8.00331C43.0371 7.79798 43.4571 7.69531 43.9331 7.69531C44.4558 7.69531 44.8851 7.80265 45.2211 8.01731C45.5665 8.23198 45.8231 8.56331 45.9911 9.01131C46.1965 8.60998 46.4998 8.29265 46.9011 8.05931C47.3025 7.81665 47.7598 7.69531 48.2731 7.69531ZM56.1734 7.69531C56.7614 7.69531 57.2841 7.84465 57.7414 8.14331C58.2081 8.44198 58.5674 8.86198 58.8194 9.40331C59.0807 9.94465 59.2114 10.57 59.2114 11.2793C59.2114 11.9793 59.0854 12.5953 58.8334 13.1273C58.5814 13.6593 58.2221 14.07 57.7554 14.3593C57.2981 14.6486 56.7707 14.7933 56.1734 14.7933C55.6601 14.7933 55.2074 14.686 54.8154 14.4713C54.4234 14.2473 54.1247 13.93 53.9194 13.5193V16.6413C53.9194 16.8373 53.8541 16.9913 53.7234 17.1033C53.6021 17.2246 53.4387 17.2853 53.2334 17.2853C53.0187 17.2853 52.8414 17.2246 52.7014 17.1033C52.5707 16.982 52.5054 16.8186 52.5054 16.6133V8.40931C52.5054 8.20398 52.5707 8.04065 52.7014 7.91931C52.8321 7.78865 53.0047 7.72331 53.2194 7.72331C53.4247 7.72331 53.5927 7.78865 53.7234 7.91931C53.8541 8.04065 53.9194 8.20398 53.9194 8.40931V8.98331C54.1247 8.57265 54.4234 8.25531 54.8154 8.03131C55.2074 7.80731 55.6601 7.69531 56.1734 7.69531ZM55.8374 13.6733C56.4534 13.6733 56.9294 13.468 57.2654 13.0573C57.6014 12.6373 57.7694 12.0446 57.7694 11.2793C57.7694 10.5046 57.5967 9.90265 57.2514 9.47331C56.9154 9.04398 56.4441 8.82931 55.8374 8.82931C55.2214 8.82931 54.7454 9.03931 54.4094 9.45931C54.0827 9.87931 53.9194 10.4766 53.9194 11.2513C53.9194 12.026 54.0827 12.6233 54.4094 13.0433C54.7454 13.4633 55.2214 13.6733 55.8374 13.6733ZM61.4909 14.7653C61.2855 14.7653 61.1129 14.7093 60.9729 14.5973C60.8422 14.4853 60.7769 14.3173 60.7769 14.0933V5.44131C60.7769 5.21731 60.8422 5.04931 60.9729 4.93731C61.1129 4.81598 61.2855 4.75531 61.4909 4.75531C61.6962 4.75531 61.8642 4.81598 61.9949 4.93731C62.1255 5.04931 62.1909 5.21731 62.1909 5.44131V14.0933C62.1909 14.3173 62.1255 14.4853 61.9949 14.5973C61.8642 14.7093 61.6962 14.7653 61.4909 14.7653ZM69.5155 12.9733C69.6462 12.9733 69.7535 13.0246 69.8375 13.1273C69.9215 13.23 69.9635 13.3606 69.9635 13.5193C69.9635 13.79 69.7955 14.0186 69.4595 14.2053C69.1328 14.392 68.7735 14.5366 68.3815 14.6393C67.9988 14.742 67.6302 14.7933 67.2755 14.7933C66.1928 14.7933 65.3388 14.4806 64.7135 13.8553C64.0882 13.2206 63.7755 12.3573 63.7755 11.2653C63.7755 10.5653 63.9108 9.94465 64.1815 9.40331C64.4615 8.86198 64.8488 8.44198 65.3435 8.14331C65.8475 7.84465 66.4168 7.69531 67.0515 7.69531C67.9662 7.69531 68.6895 7.98931 69.2215 8.57731C69.7535 9.16531 70.0195 9.95865 70.0195 10.9573C70.0195 11.3306 69.8515 11.5173 69.5155 11.5173H65.1895C65.2828 12.964 65.9782 13.6873 67.2755 13.6873C67.6208 13.6873 67.9195 13.6406 68.1715 13.5473C68.4235 13.454 68.6895 13.3326 68.9695 13.1833C68.9975 13.1646 69.0722 13.1273 69.1935 13.0713C69.3242 13.006 69.4315 12.9733 69.5155 12.9733ZM67.0795 8.73131C66.5382 8.73131 66.1042 8.90398 65.7775 9.24931C65.4508 9.59465 65.2548 10.08 65.1895 10.7053H68.8015C68.7735 10.0706 68.6102 9.58531 68.3115 9.24931C68.0222 8.90398 67.6115 8.73131 67.0795 8.73131ZM75.2597 7.69531C76.893 7.69531 77.7097 8.61465 77.7097 10.4533V14.0933C77.7097 14.308 77.6443 14.476 77.5137 14.5973C77.3923 14.7093 77.2197 14.7653 76.9957 14.7653C76.781 14.7653 76.6083 14.7046 76.4777 14.5833C76.3563 14.462 76.2957 14.2986 76.2957 14.0933V10.5233C76.2957 9.94465 76.179 9.51998 75.9457 9.24931C75.7217 8.97865 75.367 8.84331 74.8817 8.84331C74.3123 8.84331 73.855 9.02065 73.5097 9.37531C73.1643 9.72998 72.9917 10.206 72.9917 10.8033V14.0933C72.9917 14.2986 72.9263 14.462 72.7957 14.5833C72.6743 14.7046 72.5063 14.7653 72.2917 14.7653C72.077 14.7653 71.9043 14.7046 71.7737 14.5833C71.643 14.462 71.5777 14.2986 71.5777 14.0933V8.39531C71.5777 8.19931 71.643 8.04065 71.7737 7.91931C71.9137 7.78865 72.0863 7.72331 72.2917 7.72331C72.497 7.72331 72.6603 7.78398 72.7817 7.90531C72.903 8.02665 72.9637 8.18531 72.9637 8.38131V8.95531C73.1877 8.54465 73.5003 8.23198 73.9017 8.01731C74.303 7.80265 74.7557 7.69531 75.2597 7.69531ZM82.9901 13.6873C83.1954 13.706 83.3401 13.762 83.4241 13.8553C83.5174 13.9393 83.5641 14.0606 83.5641 14.2193C83.5641 14.406 83.4894 14.5506 83.3401 14.6533C83.2001 14.7466 82.9901 14.784 82.7101 14.7653L82.3321 14.7373C81.5761 14.6813 81.0114 14.4526 80.6381 14.0513C80.2647 13.6406 80.0781 13.0386 80.0781 12.2453V8.95531H79.2381C78.8274 8.95531 78.6221 8.77331 78.6221 8.40931C78.6221 8.24131 78.6734 8.11065 78.7761 8.01731C78.8881 7.91465 79.0421 7.86331 79.2381 7.86331H80.0781V6.42131C80.0781 6.20665 80.1387 6.03865 80.2601 5.91731C80.3907 5.79598 80.5634 5.73531 80.7781 5.73531C80.9927 5.73531 81.1654 5.79598 81.2961 5.91731C81.4267 6.03865 81.4921 6.20665 81.4921 6.42131V7.86331H82.8781C83.0741 7.86331 83.2234 7.91465 83.3261 8.01731C83.4381 8.11065 83.4941 8.24131 83.4941 8.40931C83.4941 8.58665 83.4381 8.72198 83.3261 8.81531C83.2234 8.90865 83.0741 8.95531 82.8781 8.95531H81.4921V12.3433C81.4921 12.782 81.5807 13.104 81.7581 13.3093C81.9447 13.5146 82.2247 13.6313 82.5981 13.6593L82.9901 13.6873ZM89.9276 12.9733C90.0583 12.9733 90.1656 13.0246 90.2496 13.1273C90.3336 13.23 90.3756 13.3606 90.3756 13.5193C90.3756 13.79 90.2076 14.0186 89.8716 14.2053C89.5449 14.392 89.1856 14.5366 88.7936 14.6393C88.4109 14.742 88.0423 14.7933 87.6876 14.7933C86.6049 14.7933 85.7509 14.4806 85.1256 13.8553C84.5003 13.2206 84.1876 12.3573 84.1876 11.2653C84.1876 10.5653 84.3229 9.94465 84.5936 9.40331C84.8736 8.86198 85.2609 8.44198 85.7556 8.14331C86.2596 7.84465 86.8289 7.69531 87.4636 7.69531C88.3783 7.69531 89.1016 7.98931 89.6336 8.57731C90.1656 9.16531 90.4316 9.95865 90.4316 10.9573C90.4316 11.3306 90.2636 11.5173 89.9276 11.5173H85.6016C85.6949 12.964 86.3903 13.6873 87.6876 13.6873C88.0329 13.6873 88.3316 13.6406 88.5836 13.5473C88.8356 13.454 89.1016 13.3326 89.3816 13.1833C89.4096 13.1646 89.4843 13.1273 89.6056 13.0713C89.7363 13.006 89.8436 12.9733 89.9276 12.9733ZM87.4916 8.73131C86.9503 8.73131 86.5163 8.90398 86.1896 9.24931C85.8629 9.59465 85.6669 10.08 85.6016 10.7053H89.2136C89.1856 10.0706 89.0223 9.58531 88.7236 9.24931C88.4343 8.90398 88.0236 8.73131 87.4916 8.73131Z" fill="#971D1D"/>
</svg>
