<svg width="100" height="25" viewBox="0 0 100 25" fill="none" xmlns="http://www.w3.org/2000/svg">
<rect y="0.412109" width="100" height="24" rx="4" fill="#F2D6D0"/>
<path d="M45.052 5.22C45.268 5.22 45.436 5.292 45.556 5.436C45.676 5.568 45.736 5.748 45.736 5.976V17.334C45.736 17.562 45.67 17.748 45.538 17.892C45.418 18.024 45.244 18.09 45.016 18.09C44.788 18.09 44.59 17.988 44.422 17.784L36.952 7.794V17.334C36.952 17.562 36.886 17.748 36.754 17.892C36.634 18.024 36.466 18.09 36.25 18.09C36.034 18.09 35.866 18.024 35.746 17.892C35.626 17.748 35.566 17.562 35.566 17.334V5.976C35.566 5.748 35.626 5.568 35.746 5.436C35.878 5.292 36.058 5.22 36.286 5.22C36.526 5.22 36.73 5.322 36.898 5.526L44.35 15.516V5.976C44.35 5.748 44.41 5.568 44.53 5.436C44.662 5.292 44.836 5.22 45.052 5.22ZM52.2386 9.018C54.4346 9.018 55.5326 10.17 55.5326 12.474V17.37C55.5326 17.586 55.4666 17.76 55.3346 17.892C55.2146 18.024 55.0466 18.09 54.8306 18.09C54.6146 18.09 54.4406 18.024 54.3086 17.892C54.1766 17.76 54.1106 17.586 54.1106 17.37V16.506C53.8826 17.022 53.5346 17.424 53.0666 17.712C52.5986 17.988 52.0586 18.126 51.4466 18.126C50.8826 18.126 50.3606 18.012 49.8806 17.784C49.4126 17.556 49.0406 17.238 48.7646 16.83C48.4886 16.422 48.3506 15.972 48.3506 15.48C48.3506 14.82 48.5186 14.31 48.8546 13.95C49.1906 13.578 49.7426 13.314 50.5106 13.158C51.2786 12.99 52.3466 12.906 53.7146 12.906H54.1106V12.312C54.1106 11.592 53.9606 11.064 53.6606 10.728C53.3726 10.392 52.8986 10.224 52.2386 10.224C51.4226 10.224 50.5946 10.446 49.7546 10.89C49.4306 11.094 49.2026 11.196 49.0706 11.196C48.9266 11.196 48.8066 11.142 48.7106 11.034C48.6146 10.926 48.5666 10.788 48.5666 10.62C48.5666 10.452 48.6146 10.308 48.7106 10.188C48.8186 10.056 48.9866 9.924 49.2146 9.792C49.6346 9.552 50.1086 9.366 50.6366 9.234C51.1766 9.09 51.7106 9.018 52.2386 9.018ZM51.6446 16.974C52.3646 16.974 52.9526 16.734 53.4086 16.254C53.8766 15.762 54.1106 15.132 54.1106 14.364V13.842H53.7866C52.7306 13.842 51.9266 13.89 51.3746 13.986C50.8226 14.07 50.4266 14.22 50.1866 14.436C49.9586 14.64 49.8446 14.946 49.8446 15.354C49.8446 15.822 50.0126 16.212 50.3486 16.524C50.6966 16.824 51.1286 16.974 51.6446 16.974ZM53.5166 7.38C53.2886 7.38 53.0666 7.326 52.8506 7.218C52.6346 7.11 52.3766 6.954 52.0766 6.75C51.8126 6.582 51.6026 6.462 51.4466 6.39C51.2906 6.306 51.1466 6.264 51.0146 6.264C50.8106 6.264 50.6486 6.318 50.5286 6.426C50.4206 6.534 50.3126 6.684 50.2046 6.876C50.1206 7.008 50.0486 7.11 49.9886 7.182C49.9286 7.242 49.8566 7.272 49.7726 7.272C49.6646 7.272 49.5746 7.23 49.5026 7.146C49.4306 7.062 49.3946 6.954 49.3946 6.822C49.3946 6.606 49.4606 6.366 49.5926 6.102C49.7246 5.838 49.9106 5.61 50.1506 5.418C50.3906 5.226 50.6606 5.13 50.9606 5.13C51.1886 5.13 51.4106 5.184 51.6266 5.292C51.8426 5.4 52.1006 5.556 52.4006 5.76C52.6646 5.928 52.8746 6.054 53.0306 6.138C53.1866 6.21 53.3306 6.246 53.4626 6.246C53.6546 6.246 53.8046 6.192 53.9126 6.084C54.0326 5.976 54.1526 5.826 54.2726 5.634C54.3566 5.49 54.4286 5.388 54.4886 5.328C54.5486 5.256 54.6206 5.22 54.7046 5.22C54.8126 5.22 54.9026 5.268 54.9746 5.364C55.0466 5.448 55.0826 5.556 55.0826 5.688C55.0826 5.892 55.0166 6.132 54.8846 6.408C54.7526 6.672 54.5666 6.9 54.3266 7.092C54.0866 7.284 53.8166 7.38 53.5166 7.38ZM61.8376 18.126C61.0096 18.126 60.2776 17.94 59.6416 17.568C59.0176 17.196 58.5316 16.668 58.1836 15.984C57.8476 15.288 57.6796 14.484 57.6796 13.572C57.6796 12.66 57.8476 11.862 58.1836 11.178C58.5316 10.482 59.0176 9.948 59.6416 9.576C60.2776 9.204 61.0096 9.018 61.8376 9.018C62.6656 9.018 63.3976 9.204 64.0336 9.576C64.6696 9.948 65.1556 10.482 65.4916 11.178C65.8396 11.862 66.0136 12.66 66.0136 13.572C66.0136 14.484 65.8396 15.288 65.4916 15.984C65.1556 16.668 64.6696 17.196 64.0336 17.568C63.3976 17.94 62.6656 18.126 61.8376 18.126ZM61.8376 16.92C62.7016 16.92 63.3616 16.638 63.8176 16.074C64.2856 15.498 64.5196 14.664 64.5196 13.572C64.5196 12.504 64.2856 11.682 63.8176 11.106C63.3496 10.518 62.6896 10.224 61.8376 10.224C60.9856 10.224 60.3256 10.518 59.8576 11.106C59.3896 11.682 59.1556 12.504 59.1556 13.572C59.1556 14.652 59.3836 15.48 59.8396 16.056C60.3076 16.632 60.9736 16.92 61.8376 16.92Z" fill="#AE1100"/>
</svg>
