<svg width="100" height="25" viewBox="0 0 100 25" fill="none" xmlns="http://www.w3.org/2000/svg">
<rect y="0.412109" width="100" height="22.5882" rx="4" fill="#ACD9C5"/>
<path d="M40.616 18.144C39.716 18.144 38.852 18.012 38.024 17.748C37.208 17.472 36.554 17.106 36.062 16.65C35.882 16.482 35.792 16.272 35.792 16.02C35.792 15.852 35.84 15.708 35.936 15.588C36.032 15.456 36.146 15.39 36.278 15.39C36.434 15.39 36.602 15.456 36.782 15.588C37.898 16.452 39.17 16.884 40.598 16.884C41.63 16.884 42.422 16.686 42.974 16.29C43.526 15.894 43.802 15.33 43.802 14.598C43.802 14.178 43.67 13.842 43.406 13.59C43.142 13.326 42.794 13.116 42.362 12.96C41.93 12.804 41.348 12.642 40.616 12.474C39.632 12.246 38.822 12.006 38.186 11.754C37.562 11.502 37.052 11.142 36.656 10.674C36.272 10.206 36.08 9.594 36.08 8.838C36.08 8.118 36.272 7.482 36.656 6.93C37.052 6.366 37.598 5.934 38.294 5.634C39.002 5.322 39.806 5.166 40.706 5.166C41.546 5.166 42.326 5.298 43.046 5.562C43.778 5.814 44.39 6.18 44.882 6.66C45.074 6.852 45.17 7.062 45.17 7.29C45.17 7.458 45.122 7.608 45.026 7.74C44.93 7.86 44.816 7.92 44.684 7.92C44.552 7.92 44.378 7.854 44.162 7.722C43.574 7.242 43.028 6.906 42.524 6.714C42.02 6.522 41.414 6.426 40.706 6.426C39.71 6.426 38.936 6.636 38.384 7.056C37.832 7.464 37.556 8.04 37.556 8.784C37.556 9.42 37.796 9.9 38.276 10.224C38.768 10.536 39.518 10.812 40.526 11.052C41.618 11.316 42.476 11.562 43.1 11.79C43.724 12.006 44.24 12.336 44.648 12.78C45.068 13.224 45.278 13.818 45.278 14.562C45.278 15.27 45.08 15.894 44.684 16.434C44.3 16.974 43.754 17.394 43.046 17.694C42.338 17.994 41.528 18.144 40.616 18.144ZM48.1974 18.09C47.9814 18.09 47.8014 18.03 47.6574 17.91C47.5254 17.778 47.4594 17.598 47.4594 17.37V9.774C47.4594 9.546 47.5254 9.372 47.6574 9.252C47.8014 9.12 47.9814 9.054 48.1974 9.054C48.4134 9.054 48.5874 9.12 48.7194 9.252C48.8514 9.372 48.9174 9.546 48.9174 9.774V17.37C48.9174 17.61 48.8514 17.79 48.7194 17.91C48.5874 18.03 48.4134 18.09 48.1974 18.09ZM48.1974 7.164C47.9094 7.164 47.6754 7.08 47.4954 6.912C47.3154 6.744 47.2254 6.522 47.2254 6.246C47.2254 5.982 47.3154 5.766 47.4954 5.598C47.6754 5.43 47.9094 5.346 48.1974 5.346C48.4854 5.346 48.7194 5.43 48.8994 5.598C49.0794 5.766 49.1694 5.982 49.1694 6.246C49.1694 6.522 49.0794 6.744 48.8994 6.912C48.7194 7.08 48.4854 7.164 48.1974 7.164ZM61.399 9.018C63.343 9.018 64.315 10.176 64.315 12.492V17.37C64.315 17.598 64.249 17.778 64.117 17.91C63.985 18.03 63.811 18.09 63.595 18.09C63.379 18.09 63.199 18.03 63.055 17.91C62.923 17.778 62.857 17.598 62.857 17.37V12.528C62.857 11.724 62.713 11.142 62.425 10.782C62.137 10.422 61.687 10.242 61.075 10.242C60.343 10.242 59.767 10.488 59.347 10.98C58.927 11.472 58.717 12.138 58.717 12.978V17.37C58.717 17.598 58.645 17.778 58.501 17.91C58.369 18.03 58.195 18.09 57.979 18.09C57.763 18.09 57.589 18.03 57.457 17.91C57.325 17.778 57.259 17.598 57.259 17.37V12.528C57.259 11.724 57.115 11.142 56.827 10.782C56.539 10.422 56.083 10.242 55.459 10.242C54.739 10.242 54.163 10.488 53.731 10.98C53.311 11.472 53.101 12.138 53.101 12.978V17.37C53.101 17.598 53.035 17.778 52.903 17.91C52.771 18.03 52.597 18.09 52.381 18.09C52.165 18.09 51.985 18.03 51.841 17.91C51.709 17.778 51.643 17.598 51.643 17.37V9.774C51.643 9.558 51.709 9.384 51.841 9.252C51.985 9.12 52.165 9.054 52.381 9.054C52.585 9.054 52.753 9.12 52.885 9.252C53.017 9.372 53.083 9.54 53.083 9.756V10.62C53.347 10.104 53.713 9.708 54.181 9.432C54.649 9.156 55.189 9.018 55.801 9.018C57.169 9.018 58.063 9.594 58.483 10.746C58.735 10.218 59.119 9.798 59.635 9.486C60.151 9.174 60.739 9.018 61.399 9.018Z" fill="#034A2A"/>
</svg>
